<svg height="512" viewBox="0 0 58 58" width="512" xmlns="http://www.w3.org/2000/svg"><g id="046---Cut-Throat-Shave" transform="translate(-1 -1)"><path id="Shape" d="m29.25 14c5.65-7.2-4.06-12-14.25-2.24-9.45 9-13.52 20.6-13.95 33.56-.15 4.58-.27 9.34 3.45 12.57 1.14189762.868771 2.57370161 1.2660966 4 1.11 2.4830923-.1238233 4.6502218-1.7235589 5.5-4.06 1.54-3.49.19-9.86 1.06-15.82 1.1871332-7.8819545 4.7608692-15.2109053 10.24-21 1.3899035-1.301195 2.7084919-2.6765327 3.95-4.12zm-21.25 40c-1.1045695 0-2-.8954305-2-2s.8954305-2 2-2 2 .8954305 2 2-.8954305 2-2 2zm15-39c-1.1045695 0-2-.8954305-2-2s.8954305-2 2-2 2 .8954305 2 2-.8954305 2-2 2z"/><path id="Shape" d="m30.21 15.94c-.93 1.09-2 2-3.54 3.54l7.24 7.24-1.41 1.41 8.66 8.67.25-1.74c.0773971-.5467163.5832605-.9272331 1.13-.85.5467163.0773971.9272331.5832605.85 1.13l-.46 3.22 1.76 1.77.25-1.74c.0518035-.3572656.2902709-.6597558.6255737-.7935254s.7165007-.078496 1 .145c.2834993.2234959.4262298.5812598.3744263.9385254l-.46 3.21 1.77 1.78.25-1.74c.0500172-.3572656.2868339-.6607088.6212436-.7960254.3344096-.1353166.7156075-.0819489 1 .14.2843924.2219489.4287736.5787598.3787564.9360254l-.5 3.22 1.76 1.77.24-1.73c.0589488-.3572656.3040187-.6559438.6428942-.7835255.3388755-.1275816.7200733-.0646839 1 .165.2799267.229684.4160546.5912599.3571058.9485255l-.46 3.22 3 3 .71-.71c2.339627-2.3425404 2.339627-6.1374596 0-8.48z"/><path id="Shape" d="m29 31.67c-.3877236.3900375-.3877236 1.0199625 0 1.41l22.59 22.63c.3900375.3877236 1.0199625.3877236 1.41 0l2.12-2.12-24-24.05z"/><path id="Shape" d="m16.74 1.14c-.493262-.19675841-1.0445257-.18926187-1.5322549.02083687s-.8718749.60554777-1.0677451 1.09916313c-.08.21-1.62 4.17-.16 7.73 1.0493004-1.00698799 2.1872385-1.91733842 3.4-2.72-.0910511-1.2006349.0725188-2.40696271.48-3.54.4031361-1.02444342-.0974575-2.18206624-1.12-2.59z"/></g></svg>