<svg height="456pt" viewBox="0 -92 456 456" width="456pt" xmlns="http://www.w3.org/2000/svg"><path d="m321.265625 216.3125c-.855469 2.472656-1.28125 5.070312-1.265625 7.6875-.027344 1.96875.226562 3.933594.742188 5.832031v.105469.085938c2.789062 10.527343 12.3125 17.855468 23.203124 17.855468 10.886719 0 20.410157-7.328125 23.199219-17.855468v-.085938s0-.066406 0-.105469c.554688-1.894531.84375-3.859375.855469-5.832031 0-11.753906-8.507812-21.777344-20.105469-23.683594-11.59375-1.90625-22.867187 4.863282-26.628906 15.996094zm0 0"/><path d="m344 184c22.082031.027344 39.972656 17.917969 40 40h14.625l-3-18.902344c-1.613281-9.949218-9.238281-17.84375-19.121094-19.808594l-346.289062-67.832031c-8.777344-1.816406-17.378906 3.796875-19.246094 12.566407l-3.03125 15.65625 301.0625 59.007812c7.015625-12.765625 20.433594-20.695312 35-20.6875zm0 0"/><path d="m48 240h80v-16h-80zm0 0"/><path d="m380.65625 240c-6.363281 14.570312-20.753906 23.988281-36.65625 23.988281s-30.292969-9.417969-36.65625-23.988281h-163.34375v8c0 4.417969-3.582031 8-8 8h-96c-4.417969 0-8-3.582031-8-8v-8h-32v16c.144531 8.964844 7.515625 16.121094 16.480469 16h343.519531c19-.019531 35.375-13.386719 39.199219-32zm0 0"/><path d="m32 80c0 4.417969 3.582031 8 8 8s8-3.582031 8-8c-.027344-8.8125-3.648438-17.234375-10.023438-23.320312-3.785156-3.121094-5.976562-7.773438-5.976562-12.679688s2.191406-9.558594 5.976562-12.679688c6.375-6.085937 9.996094-14.507812 10.023438-23.320312 0-4.417969-3.582031-8-8-8s-8 3.582031-8 8c-.054688 4.894531-2.238281 9.523438-5.976562 12.679688-6.398438 6.070312-10.023438 14.5-10.023438 23.320312s3.625 17.25 10.023438 23.320312c3.738281 3.15625 5.921874 7.785157 5.976562 12.679688zm0 0"/><path d="m72 80c0 4.417969 3.582031 8 8 8s8-3.582031 8-8c-.027344-8.8125-3.648438-17.234375-10.023438-23.320312-3.785156-3.121094-5.976562-7.773438-5.976562-12.679688s2.191406-9.558594 5.976562-12.679688c6.375-6.085937 9.996094-14.507812 10.023438-23.320312 0-4.417969-3.582031-8-8-8s-8 3.582031-8 8c-.054688 4.894531-2.238281 9.523438-5.976562 12.679688-6.398438 6.070312-10.023438 14.5-10.023438 23.320312s3.625 17.25 10.023438 23.320312c3.738281 3.15625 5.921874 7.785157 5.976562 12.679688zm0 0"/><path d="m112 80c0 4.417969 3.582031 8 8 8s8-3.582031 8-8c-.027344-8.8125-3.648438-17.234375-10.023438-23.320312-3.785156-3.121094-5.976562-7.773438-5.976562-12.679688s2.191406-9.558594 5.976562-12.679688c6.375-6.085937 9.996094-14.507812 10.023438-23.320312 0-4.417969-3.582031-8-8-8s-8 3.582031-8 8c-.054688 4.894531-2.238281 9.523438-5.976562 12.679688-6.398438 6.070312-10.023438 14.5-10.023438 23.320312s3.625 17.25 10.023438 23.320312c3.738281 3.15625 5.921874 7.785157 5.976562 12.679688zm0 0"/><path d="m416 224h40v16h-40zm0 0"/></svg>